<svg version="1" xmlns="http://www.w3.org/2000/svg" width="453.333" height="453.333" viewBox="0 0 340.000000 340.000000"><path d="M171.5.6c-3.3.8-9.8 5.8-12.2 9.3-3.8 5.6-4.3 9.6-4.3 32.8v22.2l-3.7.7c-5.7 1-16.9 5.2-25.3 9.4-27.8 14.1-49.9 40.6-58.5 70.4-1.4 5-2.8 9.2-3 9.4-.3.3-10 .5-21.7.5-24.8-.1-29.5.8-35.3 6.4-5.3 5.2-7.5 10.5-7.1 17.8.4 9.2 4.5 15.3 13.1 19.8 3.7 1.9 5.8 2.1 27 2.2 12.7 0 23.5.4 24.1.8.7.4 1.5 2.4 1.9 4.4.9 5.3 4.9 16.1 8.4 23.2 19.5 38.5 56.9 62.4 99.6 63.6 23.4.7 45-4.8 63.1-15.9l4.1-2.6 29.4 29.6c16.2 16.2 31.3 30.7 33.6 32 15 9 34-1.8 34.4-19.4.3-9.3-1.5-11.6-34-44.1-16.5-16.6-30.1-30.4-30.1-30.6 0-.3 2.1-4.2 4.6-8.7 5.7-10.3 11.1-26 12.8-37.5 1.3-8.5 1.4-29 .1-36.3-1.1-6.3-4.5-18.8-6.4-23.8-13.5-34.1-43.4-60.9-77.8-69.8l-7.3-1.8V42.1c0-14.1-.4-23.8-1.2-26.2-1.5-5-6.7-11.2-11.4-13.4-3.7-1.7-13-2.8-16.9-1.9z"/></svg>