<?xml version="1.0" standalone="no"?>
<!DOCTYPE svg PUBLIC "-//W3C//DTD SVG 20010904//EN"
 "http://www.w3.org/TR/2001/REC-SVG-20010904/DTD/svg10.dtd">
<svg version="1.0" xmlns="http://www.w3.org/2000/svg"
 width="340.000000pt" height="340.000000pt" viewBox="0 0 340.000000 340.000000"
 preserveAspectRatio="xMidYMid meet">
<metadata>
Created by potrace 1.11, written by Peter Selinger 2001-2013
</metadata>
<g transform="translate(0.000000,340.000000) scale(0.100000,-0.100000)"
fill="#000000" stroke="none">
<path d="M1685 3381 c-22 -10 -53 -31 -68 -47 -60 -60 -62 -68 -67 -333 l-5
-243 -85 -25 c-378 -108 -686 -419 -792 -802 l-23 -81 -224 0 c-253 0 -281 -5
-346 -62 -57 -51 -79 -107 -73 -192 4 -74 38 -133 97 -173 56 -38 96 -43 327
-43 l222 0 15 -63 c95 -376 411 -701 788 -811 137 -39 225 -49 382 -43 185 7
298 35 466 118 l124 61 306 -306 c205 -204 318 -310 343 -321 95 -39 213 -8
275 73 47 62 60 133 38 208 -16 58 -24 67 -325 369 l-308 310 49 90 c165 305
184 684 50 1006 -134 322 -431 581 -766 668 l-70 18 -5 245 -5 245 -30 48
c-58 93 -189 132 -290 86z m262 -1097 c179 -39 362 -184 448 -354 13 -25 34
-79 46 -120 33 -106 33 -273 0 -380 -38 -125 -87 -206 -176 -296 -67 -68 -98
-90 -176 -127 -173 -84 -348 -98 -517 -41 -115 38 -178 78 -273 173 -70 70
-94 102 -127 171 -58 121 -75 200 -70 335 6 135 41 246 111 353 162 242 440
351 734 286z"/>
<path d="M1700 1921 c-139 -45 -221 -149 -228 -288 -5 -97 16 -158 79 -227 66
-72 130 -100 229 -100 99 0 163 28 229 100 58 63 81 123 81 210 0 124 -67 232
-177 284 -52 25 -168 36 -213 21z m59 -116 c84 -72 48 -200 -61 -212 -34 -4
-50 0 -78 19 -98 67 -53 218 65 218 32 0 51 -7 74 -25z"/>
</g>
</svg>
